<svg xmlns="http://www.w3.org/2000/svg" viewBox="0 0 128 128">
  <defs><linearGradient id="g" x1="0" x2="1" y1="0" y2="1"><stop stop-color="#6EA8FE"/><stop offset="1" stop-color="#9B7CFF"/></linearGradient></defs>
  <rect width="128" height="128" rx="34" fill="#070B14"/>
  <rect x="14" y="14" width="100" height="100" rx="28" fill="url(#g)" opacity=".92"/>
  <path d="M78.5 42.5c-4.5-4.2-10-6.3-16.4-6.3-15.4 0-25.8 11.4-25.8 27.8 0 16.3 10.4 27.8 25.8 27.8 7.1 0 13.1-2.4 17.6-7.2l-8.1-9.1c-2.6 2.6-5.5 3.9-8.9 3.9-7.4 0-12.4-6.2-12.4-15.4 0-9.3 5-15.4 12.4-15.4 3.3 0 6.1 1.2 8.4 3.4l7.4-9.5Z" fill="#fff"/>
</svg>
