<svg xmlns="http://www.w3.org/2000/svg" width="48" height="48" viewBox="0 0 48 48" fill="none">
  <defs>
    <linearGradient id="grad-maint" x1="7" y1="8" x2="41" y2="40" gradientUnits="userSpaceOnUse">
      <stop offset="0" stop-color="#63D7FF"/>
      <stop offset="1" stop-color="#66F0B5"/>
    </linearGradient>
  </defs>
  <path d="M27.5 12.5A6.5 6.5 0 0 0 34 19C35.2 19 36.4 18.7 37.4 18.1C37.3 19.2 36.9 20.4 36.1 21.3C33.7 24.2 29.5 24.6 26.6 22.2L17.2 31.6C16 32.8 14 32.8 12.8 31.6C11.6 30.4 11.6 28.4 12.8 27.2L22.2 17.8C19.8 14.9 20.2 10.7 23.1 8.3C24 7.5 25.2 7.1 26.3 7C25.7 8 25.4 9.2 25.4 10.5A6.5 6.5 0 0 0 27.5 12.5Z" stroke="url(#grad-maint)" stroke-width="2.5" stroke-linecap="round" stroke-linejoin="round"/>
<circle cx="15.5" cy="29.5" r="1.5" fill="url(#grad-maint)"/>
</svg>